<?xml version="1.0" encoding="utf-8"?>
<!-- Generator: Adobe Illustrator 24.0.1, SVG Export Plug-In . SVG Version: 6.00 Build 0)  -->
<svg version="1.1" id="Layer_1" xmlns="http://www.w3.org/2000/svg" xmlns:xlink="http://www.w3.org/1999/xlink" x="0px" y="0px"
	 viewBox="0 0 86 100" style="enable-background:new 0 0 86 100;" xml:space="preserve">
<style type="text/css">
	.st0{fill:#484542;}
	.st1{fill:#FFD600;}
	.st2{fill:#5C5956;}
	.st3{fill:#FFFFFF;}
	.st4{opacity:0.8;}
	.st5{fill:#353436;}
	.st6{opacity:0.15;}
	.st7{fill:#FFF5D0;}
	.st8{fill:#FFE68A;}
	.st9{fill:#FFEBA1;}
	.st10{fill:#EED2B3;}
	.st11{fill:#EAC58F;}
</style>
<g>
	<g>
		<ellipse transform="matrix(0.7071 -0.7071 0.7071 0.7071 -19.986 42.7187)" class="st0" cx="41.6" cy="45.5" rx="34" ry="34"/>
		<path class="st1" d="M41.6,80.1c-19.1,0-34.7-15.5-34.7-34.7c0-19.1,15.5-34.7,34.7-34.7s34.7,15.5,34.7,34.7
			C76.2,64.6,60.7,80.1,41.6,80.1z M41.6,12.2c-18.3,0-33.3,14.9-33.3,33.3c0,18.3,14.9,33.3,33.3,33.3s33.3-14.9,33.3-33.3
			C74.8,27.1,59.9,12.2,41.6,12.2z"/>
	</g>
	<g>
		<path class="st2" d="M15.9,28.2c0,0-9.5,14.7-2.2,29.5L24,56C24,56,13,41.5,15.9,28.2z"/>
	</g>
	<g>
		<path class="st1" d="M74.2,65.7l0.4,7.8c0,0.7,0,1.3-0.1,2c0,0,0,0,0,0c-0.1,1.1-0.5,2.2-1.1,3.2l0,0c-0.1,0.1-0.2,0.3-0.3,0.4
			l0,0.1c-0.1,0.2-0.2,0.3-0.3,0.4L50.1,96.4L47,98.3c-0.7,0.2-1.4,0.4-2.1,0.4c-1,0.1-1.9-0.1-2.8-0.4L39.5,97L14.2,82.6l0,0
			c-0.1-0.1-0.2-0.2-0.3-0.3l-0.1-0.1c-1-1.1-1.6-2.3-1.8-3.7v0c-0.1-0.6-0.2-1.1-0.3-1.7L11.3,69c-0.3-5,3.9-9.4,9.4-9.7l43.2-2.3
			C69.3,56.8,74,60.7,74.2,65.7z"/>
	</g>
	<g>
		<path class="st1" d="M14.3,82.5L14.3,82.5c-0.1-0.1-0.2-0.2-0.3-0.3l-0.1-0.1c-1-1.1-1.6-2.3-1.8-3.7v0c-0.1-0.6-0.2-1.1-0.3-1.7
			l-0.4-7.8c-0.3-5,3.9-9.4,9.4-9.7L64,57c5.4-0.3,10.1,3.6,10.3,8.6l0.4,7.8c0,0.7,0,1.3-0.1,2c0,0,0,0,0,0
			c-0.1,1.1-0.5,2.2-1.1,3.2l0,0c-0.1,0.1-0.2,0.3-0.3,0.4l0,0.1c-0.1,0.2-0.2,0.3-0.3,0.4L47,98.2c-0.7,0.2-1.4,0.4-2.1,0.4
			c-1,0.1-1.9-0.1-2.8-0.4L14.3,82.5z"/>
		<path class="st3" d="M44.5,99.3c-0.9,0-1.8-0.2-2.7-0.5c0,0-0.1,0-0.1-0.1L13.9,83.1c-0.1,0-0.1-0.1-0.2-0.1
			c-0.1-0.1-0.2-0.2-0.3-0.3l-0.1-0.1c-1-1.1-1.7-2.5-2-4c-0.2-0.6-0.3-1.2-0.3-1.8l-0.4-7.8c-0.1-2.6,0.8-5.2,2.7-7.1
			c1.9-2,4.5-3.1,7.3-3.3l43.2-2.3c5.8-0.3,10.8,3.9,11.1,9.3l0.4,7.8c0,0.7,0,1.4-0.1,2.1c-0.1,1.3-0.5,2.4-1.2,3.5
			c-0.1,0.2-0.2,0.3-0.3,0.5l-0.1,0.1c-0.1,0.2-0.2,0.3-0.4,0.4c0,0-0.1,0.1-0.1,0.1L47.4,98.7c-0.1,0-0.1,0.1-0.2,0.1
			c-0.7,0.3-1.5,0.4-2.3,0.5C44.8,99.3,44.7,99.3,44.5,99.3z M42.4,97.5c0.8,0.3,1.7,0.4,2.5,0.3c0.6,0,1.2-0.2,1.8-0.4l25.6-18.6
			c0.1-0.1,0.2-0.2,0.3-0.3l0-0.1c0.1-0.1,0.2-0.3,0.3-0.4c0.6-0.9,0.9-1.9,1-2.9c0,0,0-0.1,0-0.1C74,74.6,74,74,74,73.4l-0.4-7.8
			c-0.2-4.7-4.6-8.2-9.6-8l-43.2,2.3c-2.5,0.1-4.7,1.1-6.4,2.8c-1.6,1.7-2.5,3.9-2.4,6.1l0.4,7.8c0,0.5,0.1,1.1,0.2,1.6
			c0,0,0,0,0,0.1c0.2,1.3,0.8,2.4,1.7,3.3l0.1,0.1c0.1,0.1,0.2,0.2,0.2,0.2L42.4,97.5z"/>
	</g>
	<g class="st4">
		<g>
			
				<rect x="52.6" y="87.2" transform="matrix(0.9987 -5.047067e-02 5.047067e-02 0.9987 -4.3828 2.8162)" class="st5" width="2" height="2"/>
		</g>
		<g>
			
				<rect x="50.5" y="85.3" transform="matrix(0.9987 -5.047067e-02 5.047067e-02 0.9987 -4.2912 2.7096)" class="st5" width="2" height="2"/>
		</g>
		<g>
			
				<rect x="46.8" y="89.5" transform="matrix(0.9987 -5.080222e-02 5.080222e-02 0.9987 -4.5336 2.5439)" class="st5" width="2" height="2"/>
		</g>
		<g>
			
				<rect x="50.7" y="89.3" transform="matrix(0.9987 -5.015711e-02 5.015711e-02 0.9987 -4.4619 2.707)" class="st5" width="2" height="2"/>
		</g>
		<g>
			
				<rect x="54.5" y="85.1" transform="matrix(0.9987 -5.048829e-02 5.048829e-02 0.9987 -4.2776 2.9088)" class="st5" width="2" height="2"/>
		</g>
		<g>
			
				<rect x="46.6" y="85.5" transform="matrix(0.9987 -5.049007e-02 5.049007e-02 0.9987 -4.3079 2.5125)" class="st5" width="2" height="2"/>
		</g>
		<g>
			
				<rect x="48.7" y="87.4" transform="matrix(0.9987 -5.014057e-02 5.014057e-02 0.9987 -4.3695 2.6002)" class="st5" width="2" height="2"/>
		</g>
	</g>
	<g class="st6">
		<path class="st5" d="M28.7,87L42,94.8c0,0-3.9-3.2-4.9-8.3L28.7,87z"/>
	</g>
	<g class="st6">
		<path class="st5" d="M14.9,66.6c0,0,2-4.2,5.2-4.4c2.5-0.2,13.2-0.8,13.2-0.8s-0.7,3-0.9,5C32.3,68.3,14.9,66.6,14.9,66.6z"/>
	</g>
	<g>
		<path class="st1" d="M81.7,74.1c0.2,3.5-2.5,6.5-6,6.7l-64.5,3.5c-3.5,0.2-6.5-2.5-6.7-6l-0.3-4.7c-0.2-3.5,2.5-6.5,6-6.7
			l64.5-3.5c3.5-0.2,6.5,2.5,6.7,6L81.7,74.1z"/>
	</g>
	<g>
		<g>
			<path class="st3" d="M62.5,23.4c-0.9-0.8-2.1-1.7-3-2.4l0.2-3c0.9-0.9,1.8-1.9,2.2-2.8c1.2-2.4,1.4-5,0.6-7.4
				c-0.6-1.8-2.2-4.3-6.1-6.1c-1.5-0.7-3.2-1-5.1-1.1C46.7,0.6,42.3,2.4,39.7,4c-2.5,1.6-7.3,3.3-7.9,3.5c-0.5,0.1-4.3,1.2-8,2.2
				c-0.6,0.2-1.3,0.3-2.1,0.5c-3.8,0.9-8.9,2.1-9.5,7.3c-0.4,4,2.2,6.3,4.6,7.4l0.3,1.7l0.1,1.4c-1,1.2-1.5,2.7-1.3,4.5
				c0.5,4.8,2.2,7.9,5.1,9.2c0,0,0.2,0.1,0.3,0.2c0.1,0.1,0.2,0.2,0.3,0.4c0.4,0.5,1.2,1.4,2.8,1.6c1.6,4,3.7,8.5,5.7,10
				c2.6,1.9,4.1,2.7,5.6,3.4c0.3,0.1,0.6,0.2,0.8,0.4c0.7,0.3,1.3,0.5,1.8,0.9l0.5,0.3c2.2,1.4,3.6,2.4,6.8,3.1
				c0.4,0.1,0.8,0.1,1.2,0.1c0.4,0,0.8,0,1.2,0c2.5-0.1,7.6-1.2,9.2-4.2c0.8-1.5,1-2.9,1.2-4.5c0.1-0.3,0.2-0.8,0.4-1.4
				c0.2-0.6,0.5-1.3,0.7-2.2c0.8-3.4,1.8-7.6,1.1-11.8c-0.3-1.9-0.7-3.4-1-4.4l0-0.1c-0.2-0.7-0.3-1.3-0.4-1.6c0-0.2,0-0.4,0-0.6
				c0.1,0,0.2-0.1,0.2-0.1c0.9-0.4,3.8-1.8,4.2-4.3C64,25.5,63.6,24.3,62.5,23.4z"/>
		</g>
		<g>
			<path class="st7" d="M54.1,16.7c0,0.2-0.7,6.8-0.4,6.9c0.2,0.1,2.9-0.1,2.9-0.1l0.5-6.9L54.1,16.7z"/>
		</g>
		<g>
			<polygon class="st0" points="57.4,16.1 56.2,16.6 56,22.3 57,22.2 			"/>
		</g>
		<g>
			<path class="st8" d="M43.5,24.7l6-1l7.3,5.5c0,0-0.8,0.4-0.9,0.4c-0.1,0-1.1,0.2-1.1,0.2l-1.5,0.3l-1,0.2l-0.8,0l-0.7,0.1l-0.8,0
				L43.5,24.7z"/>
		</g>
		<g>
			<polygon class="st9" points="41.4,20.9 40.8,13.4 46.7,9.1 53.1,11.7 53.5,19.5 48.3,24.4 			"/>
		</g>
		<g>
			<polygon class="st9" points="52,12.5 52.3,19 48.1,23.1 42.5,20.2 41.9,14 46.8,10.4 			"/>
		</g>
		<g>
			<path class="st7" d="M19.1,21.8c0,0,1,5.4,1.2,5.4c0.2,0.1,3.4,0,3.4,0l-0.5-6.3L19.1,21.8z"/>
		</g>
		<g>
			<path class="st10" d="M21.9,29.5l-2.3,0.8l-0.6,2l0.4,2.4l0.6,2.2l1.1,1.6l1.2,0.5l1.9,0.6l0.7,1.1l1.2-0.1L27,41l0.6,2.2
				l1.6,4.3l1.7,1.9l1.5,2.6l4.4,2.3l2.9,1.3l2.6,2l4,1.3l2.6-0.1l3.5-0.4l1.7-1.4l1.4-1.5L56,53l0.8-3.6l0.9-3.3l0.4-3.8l0.1-3.5
				l-0.7-2.3l-0.7-3.5l-0.1-2.1l0.1-1.6l-1.5,0.6l-4.8,0.7l-8.3-1l-5.9-0.7l-5.1-0.3c0,0-3,0.1-3.3,0.2c-0.2,0.1-4.7,0.7-4.7,0.7
				L21.9,29.5z"/>
		</g>
		<g>
			<path class="st8" d="M21.7,22.3l0.7,4.3c0,0,11.8,0.5,17.2-0.8c3.2-0.8,3.9-1.1,7.1-1.7c1.7-0.3,7.8-1,7.8-1l0.2-6.1l-2,0.3
				l0,1.9l-4.4,4.2l-6.2-2.8l-0.2-1.4L21.7,22.3z"/>
		</g>
		<g>
			<path class="st11" d="M25.4,26.6c0.6-0.2,1.4,0.7,2,0.4c1.3-0.6,2.7,0.6,4.1,0.3c2.6-0.4,5.1-2,7.7-1.8l7.3,4.4
				c-2.4,0.1-5.5-0.4-6.9,1.5c-0.3,0.4-3.5,0.8-3.8,1c-0.3,0.3-2.8,3.7-3.3,3.8c-1.4,0.6-1.6,1.6-1.6,4.5c0,1.9,1.2,3.2,2.4,4.3
				c1,0.9,1.8-1.2,2.9-0.5c0.6,0.3,0.7,2.4,0.9,2.9c0.4,0.8,0.7,1.5,1.3,2.1c1.2,1.2,2.7,2.6,2.7,2.6s1,1.5,3.7,1.3
				c1.5-0.1,2.7,1.5,4.1,2.1c0.8,0.3,4.1-0.6,4.7,0.1l0.1,1.3c-0.8,1.2-0.7,0.4-2,0.9c-0.4,0.1-3.5,1-3.8,0.9
				c-0.7-0.3-4.4-1-5.1-1.2c-1.8-0.5-2.8-1.8-4.5-2.6c-2.6-1.1-4-1.1-6.1-3.2c-1.9-1.8-1.3-1.4-2.9-3.5c-0.7-0.9-0.6-3-1.4-3.7
				l-1.2-4.9c-2.6-0.3-0.9-5.6-2.6-5.6c-0.6,0-1,0.7-2.1-0.4c-2.8-2.7,1.1-3.7,1.5-4.6"/>
		</g>
		<g>
			<g>
				<path class="st0" d="M60.9,25.2c-1.6-1.4-4.3-3.3-4.3-3.3s-5.1,1.3-13.4,2.6c-8.3,1.3-13.2,1.4-13.2,1.4l0.1,3.1
					c0,0,4.8,0.7,13.5,1.4c9,0.7,12.1-0.4,15.1-1.7C60,28.2,62.5,26.6,60.9,25.2z M53.7,30c-1.6,0.2-2.9,0.3-2.9,0.3l-7-5.4l5.4-0.8
					l7.2,5.2C56.5,29.3,55.3,29.8,53.7,30z"/>
			</g>
		</g>
		<g>
			<g>
				<path class="st0" d="M55.4,4C50.6,1.9,44.3,4,41,6.1c-3,1.9-8.5,3.8-8.5,3.8s-4.1,1.1-8.1,2.2c-4,1.1-9.3,1.5-9.8,5.7
					c-0.4,4.2,4.4,5.3,4.4,5.3s2.5,0,6.5-0.4c4-0.4,16-2.5,16-2.5l0.2,1.1l5.7,2.6l1.5-0.2l4.3-4.2l0-1.2l3.1-0.7
					c0.6-0.3,2.8-2.1,3.4-3.4C61.2,11.2,61.2,6.6,55.4,4z M48.1,23.1l-5.6-2.8L41.9,14l4.9-3.6l5.2,2.1l0.3,6.5L48.1,23.1z"/>
			</g>
		</g>
		<g>
			<path class="st7" d="M35.8,34.8c0,0,0.9-1.5,3.5-1.9c2.6-0.4,3.7,0.5,3.7,0.5s-0.6,0.9-2.3,1.5C39,35.4,35.8,34.8,35.8,34.8z"/>
		</g>
		<g>
			<path class="st7" d="M49.2,33.8c0,0,0.7-1.3,2.7-1.6c2-0.3,2.9,0.4,2.9,0.4s-0.5,0.8-1.8,1.2C51.7,34.3,49.2,33.8,49.2,33.8z"/>
		</g>
		<g>
			<polygon class="st7" points="41,46.7 40.6,47.6 43,49.9 44.9,51.1 47.6,51.6 48.8,51.5 50.3,51.5 51.6,50.8 52.7,49.8 53.3,48.5 
				53.9,46.4 54,45.4 53,46.3 51.5,47.2 50.1,47.6 47.9,48 46.1,48 44.8,47.8 43.5,47.6 42.2,47 			"/>
		</g>
		<g>
			<path class="st0" d="M57.3,34c-0.2-0.9-0.4-1.6-0.4-2.1c0-1.1,0.3-2,0.3-2l0.2-0.4l-1.5,0.7l0,0.1c0,0.1-0.3,1.5-0.1,3
				c0.1,0.4,0.2,1,0.5,1.7c0.5,1.8,1.3,4.5,1.2,6.8c-0.1,2-0.6,3.9-1.1,5.7c-0.3,1.1-0.5,2.1-0.7,3c-0.1,0.7-0.2,1.4-0.3,2.1
				c-0.2,1.7-0.7,2.9-1.6,3.9c-1.3,1.3-5.6,2.4-8.1,1.7c-1.3-0.4-2.4-1-3.7-1.8c-1.1-0.7-2.3-1.4-3.9-2.1c-3.3-1.4-5.7-2.7-6.9-4.4
				c-1-1.4-3.4-6.9-4.2-8.9l0-0.1l-0.2-1.1c-1.5,0.4-1.7,0.2-2.1-0.2c-0.3-0.3-0.7-0.7-1.5-0.9c-1.1-0.2-3-1.2-3.7-6.4
				c-0.1-0.5,0-0.8,0.1-1.2c0.1-0.3,0.3-0.5,0.5-0.6c1.2-0.9,3.6,0,3.8,0c2.1,3.1,2.3,5.8,2.3,5.8l4.3,0.3c0,0-0.4-0.1-0.8-2.2
				c-0.3-2.1-0.5-2.7-0.4-3.1c0.1-0.4,1.5-3.2,1.7-3.6c0.2-0.3-0.8-1.6-0.8-1.6s-5.4,0.4-7.1,0.2c-0.9-0.1-2-0.1-2.7-0.1L20,22.8
				l-1.1,0l0.6,3.3l0,0l0.3,2.8c-0.1,0-0.1,0.1-0.2,0.1c-0.9,0.6-1.4,1.7-1.3,3.1c0.5,5,2.3,6.6,3.8,7.2c0.1,0.1,0.2,0.1,0.3,0.2
				c0.2,0.1,0.3,0.2,0.4,0.3c0.3,0.3,0.5,0.5,0.7,0.7c0.5,0.6,0.9,0.9,1.8,0.8c0.2,0,0.5-0.1,0.8-0.1c0.7,1.9,3.4,9,5.5,10.6
				c2.4,1.8,3.7,2.5,5.1,3.1c1,0.4,2.1,0.8,3,1.4c2.5,1.6,3.5,2.4,6.5,3c0.5,0.1,1.1,0.1,1.8,0.1c2.9-0.2,6.4-1.4,7.2-2.9
				c0.6-1.1,0.8-2.2,1-3.8c0.2-1,0.7-2.2,1.1-3.7c0.8-3.3,1.7-7.1,1.1-10.8C57.9,36.4,57.6,35,57.3,34z"/>
		</g>
		<g>
			<polygon class="st0" points="48.9,39.7 47.2,40.1 48.4,40.2 			"/>
		</g>
		<g>
			<path class="st0" d="M30.2,41.4l0.6,1c0.6,1,2.6,4.1,3.3,4.1c0.1,0,0.1,0,0.1-0.1c0,0,0.1-0.1,0.1-0.2c0-0.7-2.7-3.4-3.3-4
				L30.2,41.4z"/>
		</g>
		<g>
			<path class="st0" d="M43.8,31.6c-1.1-0.1-2.5-0.1-2.5-0.1l-0.6,0c0,0-0.3,0-0.7,0c-0.5,0-1.4,0.1-2.3,0.3
				C36.1,32.2,35,34,34.9,34l-0.5,0.7l0.7-0.6c0,0,1.9-1.6,3.6-1.9c0.3,0,0.7-0.1,1-0.1c1.5-0.1,2.7,0,3,0.1
				c1.4,0.6,1.4,2.6,1.4,2.6l0,0.2l0.7-0.5l-0.6-1c-0.1-0.3-0.6-1.2,0-1.3c0.2-0.1,0.5,0,0.5,0l0.1,0l-0.1-0.6L43.8,31.6z"/>
		</g>
		<g>
			<path class="st0" d="M38.2,34.4c-0.4,0.1-0.7-0.1-0.7-0.1s0.1,1.2,1.5,0.9c1.3-0.3,1.1-1.6,1-2c1.8-0.1,2.6,0.8,2.6,0.8l0,0
				l0.8-0.1l0-0.1c0,0-0.9-1.5-3.4-1.3c-0.2,0-0.3,0-0.5,0c-2.7,0.3-4.1,2.5-4.1,2.5l-0.2,0.3l0.2-0.2c0,0,1.3-1.2,3-1.7
				C38.6,33.6,38.8,34.3,38.2,34.4z"/>
		</g>
		<g>
			<path class="st0" d="M47.6,31.8l-0.1,0.3l0,0c0,0,0.5,2.3,0.7,3.7c0.2,1.4,1.3,2.8,1.4,2.9l0.5,0.6l-0.3-0.8c0,0-0.7-2.1-0.9-3
				c-0.1-0.7-0.4-2.1-0.5-2.5l0.9-0.2l-0.3,0.9l0.4-0.3c0,0,0.9-0.8,1.8-1.1c0,0.3,0.1,0.9-0.4,0.9c-0.3,0.1-0.7-0.1-0.7-0.1
				s0.1,1.1,1.5,0.8c1-0.2,1.1-1.2,1-1.7c0.9,0.2,1.8,0.7,1.8,0.7l0.2,0.1l0-0.6l0,0c0,0-0.3-0.3-0.7-0.6c-0.4-0.2-0.8-0.4-0.8-0.4
				l0,0l-4.4,0.3L47.6,31.8z"/>
		</g>
		<g>
			<path class="st0" d="M44.5,40.4l0.5-0.1l-0.5,0c0,0,0,0-0.1,0c-0.2,0-0.9,0.1-1.1,0.7c-0.2,0.8,0.2,1.4,0.7,1.7l0.3,0.2
				c0.2,0.1,0.5,0.3,0.8,0.5c0.2,0.1,1.1,0.6,2.4,0.8c0.1,0,0.3,0,0.4,0c1,0,2.2-0.7,2.3-0.9c0.1-0.1,0.3-0.4,0.4-0.7
				c0-0.1,0.1-0.1,0.1-0.2c0.1-0.1,0.2-0.2,0.3-0.4c0.2-0.2,0.5-0.4,0.5-0.7c0.1-0.7-0.8-1.4-0.8-1.4l-0.2-0.1l0.1,0.2
				c0,0,0.3,0.6,0.3,1.1c0.1,0.4-0.1,0.5-0.2,0.6l-0.3-1l-0.1,0c0,0,0.1,0.6,0.1,1.3c-0.1,0.6-0.5,1-1.3,1.2c-0.1,0-0.2,0.1-0.4,0.1
				l0,0c-0.5,0-1.1-0.2-1.5-0.3c-0.1,0-0.2-0.1-0.3-0.1c-0.3-0.1-1-0.1-1.5-0.2c-0.2,0-0.3,0-0.4,0c-0.3,0-0.6-0.2-0.8-0.3l-0.1,0
				c0,0,0,0,0,0c-0.2-0.1-0.6-0.3-0.6-1C43.8,40.5,44.4,40.4,44.5,40.4z"/>
		</g>
		<g>
			<polygon class="st0" points="44.5,20.5 44.2,18 45.7,17.7 46,21.2 47.2,21.8 46.3,11.5 45.3,12.4 45.6,16.6 44,16.8 43.7,13.6 
				42.6,14.3 43.2,19.9 			"/>
		</g>
		<g>
			<polygon class="st0" points="51.6,18.8 51.5,17.3 49.2,19.1 48.7,13 51.3,13.9 51.3,12.6 47.5,11.4 48.2,21.6 			"/>
		</g>
		<g>
			<path class="st0" d="M50.9,53.1c0,0-0.1,0-0.1,0c-0.1,0-0.2,0.1-0.3,0.1c0,0,0,0,0,0c-0.1,0-0.3,0-0.4,0.1c0,0-0.1,0-0.1,0
				c-0.1,0-0.2,0-0.3,0c0,0-0.1,0-0.1,0c-0.1,0-0.2,0-0.4,0c0,0,0,0,0,0c-0.1,0-0.3,0-0.4,0c0,0-0.1,0-0.1,0c-0.1,0-0.2,0-0.4,0
				c0,0,0,0-0.1,0c-0.1,0-0.2,0-0.3,0c0,0,0,0-0.1,0c-0.1,0-0.2,0-0.3,0c0,0-0.1,0-0.1,0c-0.1,0-0.2,0-0.3,0c0,0,0,0,0,0
				c-0.1,0-0.2,0-0.3,0c0,0,0,0-0.1,0c-0.1,0-0.1,0-0.2,0c0,0,0,0,0,0c-0.1,0-0.1,0-0.1,0c0,0,0,0,0,0c0,0-0.1,0-0.1,0c0,0,0,0,0,0
				c0,0,0,0,0,0s1.5,0.7,2.7,0.9c0.1,0,0.2,0,0.3,0c0,0,0,0,0,0c0,0,0.1,0,0.1,0c0,0,0.1,0,0.1,0c0.1,0,0.1,0,0.2,0c0,0,0,0,0.1,0
				c0.1,0,0.3-0.1,0.4-0.2c0,0,0,0,0.1,0c0,0,0.1,0,0.1-0.1c0,0,0.1,0,0.1,0c0,0,0.1,0,0.1-0.1c0,0,0.1,0,0.1,0c0,0,0.1,0,0.1-0.1
				c0,0,0.1,0,0.1-0.1c0,0,0.1,0,0.1-0.1c0,0,0,0,0.1-0.1c0,0,0.1,0,0.1-0.1c0,0,0,0,0.1,0c0,0,0.1,0,0.1-0.1c0,0,0,0,0.1,0
				c0,0,0,0,0.1-0.1c0,0,0,0,0,0c0,0,0,0,0.1-0.1c0,0,0,0,0,0c0,0,0,0,0,0c0,0,0,0,0,0c0,0,0,0,0,0c0,0,0,0,0,0c0,0,0,0,0,0
				c-0.1,0.1-0.2,0.1-0.3,0.2c0,0-0.1,0-0.1,0C51,53,50.9,53,50.9,53.1z"/>
		</g>
		<g>
			<path class="st0" d="M47.7,48.2c2,0,3.7-0.4,5.2-1.5l0,0.9l1.5-1.7l0,0c0.1,0.1,0.2,0.1,0.3,0.2l-0.2-2.2
				c-0.1,0.2-0.3,0.5-0.4,0.8c0,0-0.1,0.1-0.1,0.1c-1.4,1.9-3.4,2.7-6.1,2.8c-2.4,0.1-5.3-0.4-8.6-1.9c-0.1,0-0.1-0.1-0.2-0.1
				c0-0.1-0.1-0.2-0.1-0.3l-0.3-0.5l-0.4,2.1l0.4-0.3c0.1,0,0.2-0.1,0.2-0.2c4.1,5,6.8,5.7,8.6,5.7c0.1,0,0.2,0,0.3,0
				c0.2,0,0.3,0,0.5,0c3-0.2,4.1-1.1,4.9-2.6c0.1-0.1,0.3-1,0.3-1.1l0-0.2l-0.1,0.1c-0.1,0.1-0.7,0.7-0.8,0.9
				c-0.4,1.3-2.6,2.2-4.4,2.2l-0.1,0c-1.8,0-3.9-0.2-7.2-3.6c0-0.3,0.2-0.5,0.3-0.6C43.3,47.8,45.5,48.2,47.7,48.2z"/>
		</g>
		<g>
			<path class="st0" d="M24.2,36.8c0.2,1,1,1.1,1.1,1.1l0.7,0l-0.7-0.3c0,0-0.4-0.2-0.6-0.9c-0.2-0.8,0.5-1.4,0.5-1.4l0.1-0.1
				L25.3,35c-0.3-0.4-2.5-4.1-3.9-4.2c-0.1,0-0.2,0-0.4,0.1c-1.3,0.7-0.1,3.3-0.1,3.4l0.3-0.1c-0.2-0.9-0.4-2.4,0.2-2.6
				c0,0,0.1,0,0.1,0c0.6,0,1.8,1.6,2.3,2.4c-0.2,0.1-0.4,0.5-0.6,1.2c-0.2,1,0.3,1.3,0.3,1.3l0.2,0.2l0-0.3c0,0,0-0.7,0.1-1.1
				c0.1-0.3,0.3-0.6,0.4-0.7l0.3,0.3C24.4,35.2,24,35.9,24.2,36.8z"/>
		</g>
		<g>
			<path class="st8" d="M17.3,21.4c0,0-2.2-2.1-1.5-4.2c0.7-2.1,2.9-2.9,8.5-4.2c5.5-1.3,6-1.4,9.7-2.7c2.7-0.9,6.1-2.7,6.1-2.7
				s-2,1.6-7,3.7c-4.9,2.1-14.2,3.3-16.1,6.1C15.7,19.4,17.3,21.4,17.3,21.4z"/>
		</g>
		<g>
			<path class="st8" d="M48.8,4.2c0,0,3.7-1,7.4,1.5c3.2,2.1,2.8,5,2.8,5s0-0.8-0.7-1.8c-0.7-1-1.3-1.3-1.3-1.3s-1.2,2.7-3.8,1.1
				c-2.6-1.5,0.5-3.5,0.5-3.5S53.6,5,52.1,4.7C50.6,4.3,48.8,4.2,48.8,4.2z"/>
		</g>
	</g>
	<g>
		<g>
			<path class="st5" d="M19.2,79.5v-3.8l-3.7,0.2v3.8l-2.4,0.1v-9.7l2.4-0.1v3.8l3.7-0.2v-3.8l2.3-0.1v9.7L19.2,79.5z"/>
		</g>
		<g>
			<path class="st5" d="M28.2,79.3c-0.7,0-1.2-0.2-1.5-0.7c-0.5,0.5-1.2,0.8-1.9,0.9c-1.4,0.1-2.5-0.7-2.5-2.1c0-1.3,1-2.1,2.3-2.3
				l1.4-0.2v-0.2c0-0.4-0.3-0.7-1.1-0.7c-0.8,0-1.6,0.3-2,0.6l-0.2-1.7c0.5-0.3,1.5-0.6,2.3-0.6c1.9-0.1,3.1,0.8,3.1,2.6v2
				c0,0.6,0.3,0.9,0.8,1L28.2,79.3z M26.1,76.2l-0.9,0.1c-0.6,0.1-0.9,0.5-0.9,0.9c0,0.4,0.3,0.6,0.7,0.6c0.5,0,1.1-0.5,1.1-1.1
				V76.2z"/>
		</g>
		<g>
			<path class="st5" d="M33,79c-0.6,0-1-0.1-1.3-0.2v3.6l-2.2,0.1V72.1l1.7-0.1l0.1,0.5c0.3-0.5,1.1-0.7,1.9-0.8
				c1.6-0.1,3.5,1.1,3.5,3.3C36.7,77.3,35.1,78.9,33,79z M32.9,73.7c-0.5,0-0.9,0.2-1.2,0.5v2.5c0.3,0.2,0.7,0.4,1.2,0.4
				c0.9,0,1.6-0.8,1.6-1.8C34.5,74.3,33.8,73.6,32.9,73.7z"/>
		</g>
		<g>
			<path class="st5" d="M40.9,78.6c-0.6,0-1-0.1-1.3-0.2V82l-2.2,0.1V71.7l1.7-0.1l0.1,0.5c0.3-0.5,1.1-0.7,1.9-0.8
				c1.6-0.1,3.5,1.1,3.5,3.3C44.6,76.9,43,78.5,40.9,78.6z M40.8,73.3c-0.5,0-0.9,0.2-1.2,0.5v2.5c0.3,0.2,0.7,0.4,1.2,0.4
				c0.9,0,1.6-0.8,1.6-1.8S41.7,73.2,40.8,73.3z"/>
		</g>
		<g>
			<path class="st5" d="M46.6,70.1c-0.4,0-1.1-0.7-1.1-1.1c0-0.4,0.8-1.2,1.1-1.2c0.4,0,1.2,0.7,1.2,1.1
				C47.7,69.3,46.9,70.1,46.6,70.1z M45.5,78.2v-6.9l2.2-0.1V78L45.5,78.2z"/>
		</g>
		<g>
			<path class="st5" d="M54.4,73c-0.5-0.3-1.1-0.4-1.7-0.4c-1,0.1-1.8,0.7-1.8,1.8s0.9,1.6,2,1.6c0.6,0,1.1-0.2,1.7-0.5l-0.2,2
				c-0.4,0.3-1.1,0.4-1.9,0.5c-2,0.1-3.8-1.2-3.8-3.4c0-2.3,1.8-3.7,3.8-3.8c0.9,0,1.6,0.1,2.2,0.4L54.4,73z"/>
		</g>
		<g>
			<path class="st5" d="M60.9,77.6c-0.7,0-1.2-0.2-1.5-0.7c-0.5,0.5-1.2,0.8-1.9,0.9C56.1,77.8,55,77,55,75.6c0-1.3,1-2.1,2.3-2.3
				l1.4-0.2v-0.2c0-0.4-0.3-0.7-1.1-0.7c-0.8,0-1.6,0.3-2,0.6l-0.2-1.7c0.5-0.3,1.5-0.6,2.3-0.6c1.9-0.1,3.1,0.8,3.1,2.6v2
				c0,0.6,0.3,0.9,0.8,1L60.9,77.6z M58.8,74.5l-0.9,0.1c-0.6,0.1-0.9,0.5-0.9,0.9c0,0.4,0.3,0.6,0.7,0.6c0.5,0,1.1-0.5,1.1-1.1
				V74.5z"/>
		</g>
		<g>
			<path class="st5" d="M65,77.3c-1.2,0.1-2.1-0.2-2.7-0.6V66.5l2.2-0.1v3.8c0.2-0.1,0.5-0.2,0.8-0.2c2-0.1,3.8,1.2,3.8,3.3
				C69,75.7,67.3,77.2,65,77.3z M65.2,72c-0.3,0-0.7,0.1-0.8,0.2v3.1c0.2,0.1,0.4,0.1,0.7,0.1c1.1-0.1,1.7-0.8,1.7-1.8
				C66.9,72.6,66.1,71.9,65.2,72z"/>
		</g>
		<g>
			<path class="st5" d="M71.8,77c-0.9,0-1.8-0.2-2.2-0.5l-0.2-1.9c0.6,0.5,1.5,0.8,2.3,0.7c0.5,0,0.7-0.2,0.7-0.5
				c0-0.3-0.3-0.5-0.8-0.6c-1.3-0.4-2-1.1-2-2.2c0-1.3,1-2.2,2.5-2.3c0.8,0,1.6,0.2,1.9,0.3l-0.2,1.7c-0.3-0.2-0.9-0.4-1.6-0.4
				c-0.4,0-0.6,0.2-0.6,0.5c0,0.3,0.2,0.4,0.8,0.6c1.3,0.4,2,1.1,2,2.2C74.5,75.8,73.7,76.9,71.8,77z"/>
		</g>
	</g>
</g>
</svg>
