<?xml version="1.0" encoding="UTF-8" standalone="no"?>
<svg
   xmlns:dc="http://purl.org/dc/elements/1.1/"
   xmlns:cc="http://creativecommons.org/ns#"
   xmlns:rdf="http://www.w3.org/1999/02/22-rdf-syntax-ns#"
   xmlns:svg="http://www.w3.org/2000/svg"
   xmlns="http://www.w3.org/2000/svg"
   xmlns:sodipodi="http://sodipodi.sourceforge.net/DTD/sodipodi-0.dtd"
   xmlns:inkscape="http://www.inkscape.org/namespaces/inkscape"
   viewBox="0 0 841.89 595.28"
   version="1.1"
   id="svg883"
   sodipodi:docname="stars.svg"
   inkscape:version="0.92.4 (f8dce91, 2019-08-02)">
  <metadata
     id="metadata887">
    <rdf:RDF>
      <cc:Work
         rdf:about="">
        <dc:format>image/svg+xml</dc:format>
        <dc:type
           rdf:resource="http://purl.org/dc/dcmitype/StillImage" />
        <dc:title>morph menu happicabs</dc:title>
      </cc:Work>
    </rdf:RDF>
  </metadata>
  <sodipodi:namedview
     pagecolor="#ffffff"
     bordercolor="#666666"
     borderopacity="1"
     objecttolerance="10"
     gridtolerance="10"
     guidetolerance="10"
     inkscape:pageopacity="0"
     inkscape:pageshadow="2"
     inkscape:window-width="1853"
     inkscape:window-height="1025"
     id="namedview885"
     showgrid="false"
     inkscape:zoom="1.0025502"
     inkscape:cx="407.83346"
     inkscape:cy="527.38771"
     inkscape:window-x="1347"
     inkscape:window-y="27"
     inkscape:window-maximized="1"
     inkscape:current-layer="svg883" />
  <defs
     id="defs873">
    <style
       id="style871">.cls-1{fill:#3178bd;}.cls-2{fill:#fff;}</style>
  </defs>
  <title
     id="title875">morph menu happicabs</title>
  <g
     id="Layer_2"
     data-name="Layer 2">
    <rect
       class="cls-1"
       width="841.89001"
       height="595.28003"
       id="rect877"
       x="0"
       y="0"
       style="fill:#3178bd" />
  </g>
  <g
     id="Layer_1"
     data-name="Layer 1">
    <path
       class="cls-2"
       d="M 841.89,54.22 V 0 H 0 v 67.22 c 0,0 208,-50.43 420.94,-20.8 0,0 218.71,45.87 420.95,7.8 z"
       id="path880"
       inkscape:connector-curvature="0"
       style="fill:#ffffff" />
  </g>
  <path
     style="fill:#ffffff;fill-opacity:1;stroke:#fcd600;stroke-width:0.99684489;stroke-miterlimit:4;stroke-dasharray:none;stroke-opacity:1"
     d="m 418.2704,53.735016 c 14.94731,0.635725 29.89463,1.27145 44.84193,1.907175 5.14893,-20.662824 10.29785,-41.325646 15.44678,-61.988469 3.87778,11.792639 7.75556,23.585277 11.63335,35.377916 25.68184,-2.390607 51.36368,-4.781214 77.04554,-7.171822 -12.55071,6.652526 -25.10143,13.305053 -37.65214,19.957579 10.72333,19.185347 21.44666,38.370695 32.16999,57.556034 C 550.1213,91.69228 538.48675,84.011135 526.8522,76.329979 507.79774,90.577787 488.74327,104.82559 469.68881,119.07339 475.04898,107.67365 480.40915,96.273911 485.76931,84.874172 463.26967,74.494454 440.77004,64.114736 418.2704,53.735016 Z"
     id="path6265-2"
     inkscape:connector-curvature="0" />
  <path
     style="fill:#ffffff;fill-opacity:1;stroke:#fcd600;stroke-width:0.99684489;stroke-miterlimit:4;stroke-dasharray:none;stroke-opacity:1"
     d="m 558.88861,64.698273 c 14.94731,0.635725 29.89463,1.27145 44.84193,1.907175 5.14893,-20.662824 10.29785,-41.325646 15.44678,-61.9884734 3.87778,11.7926434 7.75556,23.5852814 11.63335,35.3779204 25.68184,-2.390607 51.36368,-4.781214 77.04554,-7.171822 -12.55071,6.652526 -25.10143,13.305053 -37.65214,19.957579 10.72333,19.185347 21.44666,38.370695 32.16999,57.556038 -11.63455,-7.68115 -23.2691,-15.362298 -34.90365,-23.043454 -19.05446,14.247804 -38.10893,28.495614 -57.16339,42.743414 5.36017,-11.39974 10.72034,-22.79948 16.0805,-34.199221 C 603.88788,85.457711 581.38825,75.077993 558.88861,64.698273 Z"
     id="path6265-2-2"
     inkscape:connector-curvature="0" />
  <path
     style="fill:#ffffff;fill-opacity:1;stroke:#fcd600;stroke-width:0.3264097;stroke-miterlimit:4;stroke-dasharray:none;stroke-opacity:1"
     d="m 612.92217,39.482303 c 5.96283,0.170864 11.92567,0.341728 17.8885,0.512592 2.05403,-5.553555 4.10806,-11.107108 6.16208,-16.660662 1.54694,3.169511 3.09388,6.339023 4.64082,9.508535 10.24509,-0.642525 20.49018,-1.285049 30.73527,-1.927573 -5.00677,1.788002 -10.01354,3.576003 -15.02031,5.364004 4.27778,5.156454 8.55557,10.312905 12.83336,15.469355 -4.6413,-2.064464 -9.28259,-4.128928 -13.92389,-6.193396 -7.60127,3.829389 -15.20254,7.658774 -22.80381,11.488162 2.13829,-3.063912 4.27658,-6.127823 6.41488,-9.191736 -8.97563,-2.78976 -17.95126,-5.579521 -26.9269,-8.369281 z"
     id="path6265-2-1-9"
     inkscape:connector-curvature="0" />
  <path
     style="fill:#ffffff;fill-opacity:1;stroke:#fcd600;stroke-width:0.99684489;stroke-miterlimit:4;stroke-dasharray:none;stroke-opacity:1"
     d="m 687.56047,58.713534 c 14.94732,0.635725 29.89464,1.27145 44.84194,1.907175 5.14893,-20.662824 10.29785,-41.325646 15.44678,-61.9884731 3.87778,11.7926431 7.75556,23.5852811 11.63335,35.3779201 25.68184,-2.390607 51.36368,-4.781214 77.04554,-7.171822 -12.55071,6.652526 -25.10143,13.305053 -37.65214,19.957579 10.72333,19.185347 21.44666,38.370698 32.16999,57.556037 -11.63455,-7.681149 -23.2691,-15.362299 -34.90365,-23.043449 -19.05446,14.2478 -38.10893,28.495609 -57.16339,42.743409 5.36017,-11.39974 10.72034,-22.79948 16.0805,-34.199219 C 732.55975,79.472972 710.06012,69.093254 687.56047,58.713534 Z"
     id="path6265-2-2-3"
     inkscape:connector-curvature="0" />
  <path
     style="fill:#ffffff;fill-opacity:1;stroke:#fcd600;stroke-width:0.3264097;stroke-miterlimit:4;stroke-dasharray:none;stroke-opacity:1"
     d="m 741.59404,33.497564 c 5.96283,0.170864 11.92567,0.341728 17.8885,0.512592 2.05403,-5.553555 4.10806,-11.107108 6.16208,-16.660662 1.54694,3.169511 3.09388,6.339023 4.64082,9.508535 10.24509,-0.642525 20.49018,-1.285049 30.73527,-1.927573 -5.00677,1.788002 -10.01354,3.576003 -15.02031,5.364004 4.27778,5.156454 8.55557,10.312905 12.83336,15.469355 -4.6413,-2.064464 -9.28259,-4.128928 -13.92389,-6.193396 -7.60127,3.829389 -15.20254,7.658774 -22.80381,11.488162 2.13829,-3.063912 4.27658,-6.127823 6.41488,-9.191736 -8.97563,-2.78976 -17.95126,-5.579521 -26.9269,-8.369281 z"
     id="path6265-2-1-9-1"
     inkscape:connector-curvature="0" />
</svg>
