<?xml version="1.0" encoding="UTF-8" standalone="no"?>
<!-- Created with Inkscape (http://www.inkscape.org/) -->

<svg
   xmlns:dc="http://purl.org/dc/elements/1.1/"
   xmlns:cc="http://creativecommons.org/ns#"
   xmlns:rdf="http://www.w3.org/1999/02/22-rdf-syntax-ns#"
   xmlns:svg="http://www.w3.org/2000/svg"
   xmlns="http://www.w3.org/2000/svg"
   xmlns:sodipodi="http://sodipodi.sourceforge.net/DTD/sodipodi-0.dtd"
   xmlns:inkscape="http://www.inkscape.org/namespaces/inkscape"
   width="28.068649mm"
   height="1.2453814mm"
   viewBox="0 0 28.068649 1.2453814"
   version="1.1"
   id="svg8"
   inkscape:version="0.92.4 (f8dce91, 2019-08-02)"
   sodipodi:docname="underline.svg">
  <defs
     id="defs2" />
  <sodipodi:namedview
     id="base"
     pagecolor="#ffffff"
     bordercolor="#666666"
     borderopacity="1.0"
     inkscape:pageopacity="0.0"
     inkscape:pageshadow="2"
     inkscape:zoom="1.4"
     inkscape:cx="347.0137"
     inkscape:cy="-242.26108"
     inkscape:document-units="mm"
     inkscape:current-layer="layer1"
     showgrid="false"
     fit-margin-top="0"
     fit-margin-left="0"
     fit-margin-right="0"
     fit-margin-bottom="0"
     inkscape:window-width="1853"
     inkscape:window-height="1025"
     inkscape:window-x="1347"
     inkscape:window-y="27"
     inkscape:window-maximized="1" />
  <metadata
     id="metadata5">
    <rdf:RDF>
      <cc:Work
         rdf:about="">
        <dc:format>image/svg+xml</dc:format>
        <dc:type
           rdf:resource="http://purl.org/dc/dcmitype/StillImage" />
        <dc:title></dc:title>
      </cc:Work>
    </rdf:RDF>
  </metadata>
  <g
     inkscape:label="Layer 1"
     inkscape:groupmode="layer"
     id="layer1"
     transform="translate(-0.4035835,-0.33494661)">
    <path
       style="fill:#ffd600;fill-opacity:1;stroke:#ffd600;stroke-width:0.40000001;stroke-miterlimit:4;stroke-dasharray:none;stroke-opacity:1"
       id="path843"
       d="m 1.9353056,0.71468643 c 1.213577,0.01135 2.427238,0.01212 3.64086,0.01487 2.25635,-0.0024 4.5128164,0.02807 6.7688354,-0.0163 2.580457,-0.07408 5.16148,-0.115911 7.7428,-0.143084 2.326791,-0.01971 4.653671,-0.02035 6.98051,-0.02976 0.261712,-0.0011 0.523425,-0.0021 0.785138,-0.0031 0,0 -0.872567,0.63396897 -0.872567,0.63396897 v 0 c -0.258924,-0.0011 -0.51785,-0.0019 -0.776774,-0.0029 -2.319626,-0.0071 -4.639308,-0.0034 -6.958875,0.01527 -2.582736,0.02469 -5.165051,0.07248 -7.746858,0.147153 -2.2629144,0.03984 -4.5263424,0.01725 -6.7895374,0.02892 -1.227276,0.0028 -2.45459,0.0036 -3.6818228,0.01487 0,0 0.9082908,-0.65991097 0.9082908,-0.65991097 z"
       inkscape:connector-curvature="0" />
  </g>
</svg>
